<svg width="512" height="512" viewBox="0 0 512 512" fill="none" xmlns="http://www.w3.org/2000/svg">
  <defs>
    <linearGradient id="outer" x1="40" y1="40" x2="472" y2="472" gradientUnits="userSpaceOnUse">
      <stop stop-color="#2B4B91"/>
      <stop offset="1" stop-color="#05285E"/>
    </linearGradient>
    <linearGradient id="inner" x1="92" y1="92" x2="420" y2="420" gradientUnits="userSpaceOnUse">
      <stop stop-color="#FF8E2B"/>
      <stop offset="1" stop-color="#EA5600"/>
    </linearGradient>
  </defs>

  <rect x="24" y="24" width="464" height="464" rx="110" fill="url(#outer)"/>
  <rect x="70" y="70" width="372" height="372" rx="84" fill="url(#inner)"/>

  <!-- phone outline -->
  <path d="M190 145H322C338 145 351 158 351 174V343C351 359 338 372 322 372H190C174 372 161 359 161 343V174C161 158 174 145 190 145Z"
        stroke="white" stroke-width="18" stroke-linecap="round" stroke-linejoin="round"/>
  <line x1="233" y1="169" x2="279" y2="169" stroke="white" stroke-width="14" stroke-linecap="round"/>

  <!-- wrench -->
  <path d="M315 194C337 176 370 178 390 199C392 201 392 205 390 207L363 234C355 242 342 242 334 234C326 226 326 213 334 205L361 178C363 176 362 172 359 170C335 156 305 160 285 180C268 197 262 221 266 243L176 333C168 341 168 355 176 363C184 371 198 371 206 363L296 273C318 277 342 271 359 254C379 234 385 204 371 180C369 177 365 177 363 179L336 206C328 214 315 214 307 206C299 198 299 185 307 177L334 150C336 148 336 144 333 142C313 128 283 133 263 153C246 170 240 194 244 216L155 305C140 320 140 345 155 360C170 375 195 375 210 360L299 271C321 275 345 269 362 252C384 230 390 197 377 171"
        fill="white"/>
  <circle cx="193" cy="347" r="8" fill="#EA5600"/>
</svg>
