<?xml version="1.0" encoding="UTF-8"?>
<svg version="1.1" xmlns="http://www.w3.org/2000/svg" width="505" height="494">
<path d="M0 0 C1.78403289 1.37082965 3.62408279 2.66996144 5.49609375 3.91796875 C5.49609375 4.57796875 5.49609375 5.23796875 5.49609375 5.91796875 C6.07359375 6.16546875 6.65109375 6.41296875 7.24609375 6.66796875 C9.82549354 8.10096863 11.55730967 9.70221551 13.49609375 11.91796875 C13.49609375 12.57796875 13.49609375 13.23796875 13.49609375 13.91796875 C14.15609375 13.91796875 14.81609375 13.91796875 15.49609375 13.91796875 C17.61274531 16.21953704 19.32990716 18.85881607 21.12109375 21.41796875 C21.65871338 22.18608887 22.19633301 22.95420898 22.75024414 23.74560547 C42.52399356 52.61226344 49.95362555 90.8231427 43.74609375 125.2734375 C40.91326432 139.67841375 36.18540066 153.35069959 28.49609375 165.91796875 C27.91214844 166.88089844 27.32820312 167.84382812 26.7265625 168.8359375 C21.74626475 176.67660992 15.92577827 183.27365035 9.49609375 189.91796875 C8.70074219 190.75328125 7.90539062 191.58859375 7.0859375 192.44921875 C3.13862276 196.51831997 3.13862276 196.51831997 1.49609375 197.91796875 C0.83609375 197.91796875 0.17609375 197.91796875 -0.50390625 197.91796875 C-0.50390625 198.57796875 -0.50390625 199.23796875 -0.50390625 199.91796875 C-2.88453884 201.76688644 -5.26039079 203.48291856 -7.75390625 205.16796875 C-8.48536865 205.66449951 -9.21683105 206.16103027 -9.97045898 206.67260742 C-15.91942999 210.64661112 -21.94575815 214.03981109 -28.50390625 216.91796875 C-29.63957031 217.42972656 -30.77523437 217.94148437 -31.9453125 218.46875 C-45.45902504 224.34664349 -59.76537469 227.51199722 -74.50390625 227.91796875 C-75.75558594 227.95792969 -77.00726563 227.99789063 -78.296875 228.0390625 C-102.28839546 228.55665353 -126.80116141 223.30894492 -147.50390625 210.91796875 C-148.38433594 210.4178125 -149.26476562 209.91765625 -150.171875 209.40234375 C-158.26030934 204.59363531 -164.79378245 198.43517095 -171.50390625 191.91796875 C-172.36242187 191.09941406 -173.2209375 190.28085937 -174.10546875 189.4375 C-178.14403753 185.52023099 -178.14403753 185.52023099 -179.50390625 183.91796875 C-179.50390625 183.25796875 -179.50390625 182.59796875 -179.50390625 181.91796875 C-180.16390625 181.91796875 -180.82390625 181.91796875 -181.50390625 181.91796875 C-183.35281182 179.53735177 -185.06879902 177.16142276 -186.75390625 174.66796875 C-187.24971191 173.93795654 -187.74551758 173.20794434 -188.25634766 172.45581055 C-192.22906888 166.51105187 -195.64649348 160.48205628 -198.50390625 153.91796875 C-198.93058594 152.94085938 -199.35726562 151.96375 -199.796875 150.95703125 C-204.91777208 138.44628577 -209.26999615 124.51817053 -209.50390625 110.91796875 C-209.52291992 110.14614258 -209.54193359 109.37431641 -209.56152344 108.57910156 C-210.42473294 70.13090138 -200.4206354 37.12590631 -173.50390625 8.91796875 C-172.64152344 7.9434375 -172.64152344 7.9434375 -171.76171875 6.94921875 C-127.756771 -40.77170237 -48.418258 -37.35857622 0 0 Z " fill="#100F0E" transform="translate(334.50390625,146.08203125)"/>
<path d="M0 0 C4.32921372 2.7784506 8.01726338 5.77586447 11.48046875 9.57421875 C11.86976563 9.06632813 12.2590625 8.5584375 12.66015625 8.03515625 C17.78805937 1.72570863 23.70270085 -2.83319195 31.48046875 -5.42578125 C44.81638578 -6.57217673 54.10604367 -4.69839511 64.85546875 3.82421875 C70.4262495 9.03446881 75.06113946 16.14737536 75.7890625 23.83203125 C76.03700077 31.2701793 75.96976329 36.798148 71.12109375 42.84765625 C67.07183264 47.10902151 62.58833028 49.76990262 57.48046875 52.57421875 C57.80001788 56.3821792 59.77417151 57.9866385 62.58251953 60.38012695 C63.12634277 60.83605225 63.67016602 61.29197754 64.23046875 61.76171875 C69.27211257 66.17816314 72.8700711 70.30184146 75.48046875 76.57421875 C75.91359375 77.56421875 76.34671875 78.55421875 76.79296875 79.57421875 C78.95654043 89.01525879 76.87034969 98.50653246 72.16015625 106.9375 C66.29351277 115.19247649 58.26034343 121.79142068 48.48046875 124.57421875 C35.99471698 125.69741399 26.16190656 124.03638911 16.16796875 116.09765625 C13.98556613 114.12743167 12.2305595 111.93011015 10.48046875 109.57421875 C9.82046875 109.24421875 9.16046875 108.91421875 8.48046875 108.57421875 C8.27421875 109.29609375 8.06796875 110.01796875 7.85546875 110.76171875 C6.07763256 114.39820187 3.74872712 116.34273982 0.48046875 118.57421875 C-0.174375 119.04472656 -0.82921875 119.51523437 -1.50390625 120 C-9.43451179 124.85407753 -18.51903514 124.70722496 -27.51953125 123.57421875 C-30.90977418 122.68961232 -33.5918427 121.4759093 -36.51953125 119.57421875 C-37.59203125 118.93484375 -38.66453125 118.29546875 -39.76953125 117.63671875 C-48.90993714 110.78141433 -54.01908087 102.64004171 -56.51953125 91.57421875 C-57.76911538 81.7626693 -55.97141006 74.79315099 -50.25 66.80078125 C-47.60249886 63.48930363 -44.55679576 60.52470427 -41.51953125 57.57421875 C-42.50953125 57.24421875 -43.49953125 56.91421875 -44.51953125 56.57421875 C-52.00793457 48.82915644 -55.59598894 42.34979477 -55.89453125 31.63671875 C-55.5840469 20.42345704 -52.25020322 13.72240088 -44.51953125 5.57421875 C-31.44135832 -6.56979897 -15.63258197 -8.84634484 0 0 Z " fill="#D3C9BB" transform="translate(241.51953125,185.42578125)"/>
<path d="M0 0 C5.10322029 1.60386923 7.90573911 4.55872495 11.34375 8.56640625 C16.26062881 13.97246433 22.15338615 17.22914404 28.39453125 20.875 C35.46631683 25.01315522 41.86622598 29.08613749 45 37 C46.05353339 42.40751649 45.29182337 46.83073897 42.26953125 51.43359375 C38.48553922 56.10245777 34.00590335 59.50778125 27.93359375 60.25390625 C22.29018437 60.54992265 18.39844788 59.58820748 14 56 C8.64959518 50.90848574 6.18529817 46.23895054 5.75 38.8125 C4.6905212 28.30600187 -2.48252673 20.76572595 -10 14 C-9.61328125 13.49210938 -9.2265625 12.98421875 -8.828125 12.4609375 C-5.74572807 8.38668017 -2.78428845 4.28352069 0 0 Z " fill="#050404" transform="translate(255,231)"/>
<path d="M0 0 C6.50575329 2.81394874 10.78671134 7.27765089 14.375 13.3125 C15.52727951 18.2673019 14.82836955 23.02111719 12.875 27.6875 C8.43513498 33.16333353 3.43151927 37.53470925 -3.6875 38.5 C-9.15794117 38.33639802 -13.05516467 35.61157812 -17 32 C-21.20069756 26.93213431 -21.6681605 21.27214534 -21.46484375 14.85546875 C-20.74132895 10.4110207 -19.08822339 8.23528165 -16 5 C-15.34 5 -14.68 5 -14 5 C-14 4.34 -14 3.68 -14 3 C-9.40671399 0.24402839 -5.30876124 -1.05577616 0 0 Z " fill="#060505" transform="translate(226,253)"/>
<path d="M0 0 C5.07753025 2.25882525 8.45152509 5.28475322 10.8046875 10.3515625 C12.56787355 15.65097085 12.05979034 19.55383852 9.7421875 24.6015625 C6.66455788 30.1224357 3.02560176 32.87095299 -2.1953125 36.3515625 C-6.1384347 37.16040808 -9.71844634 37.04392578 -13.38671875 35.32421875 C-19.06970722 31.43131773 -23.29893433 26.08340495 -24.6015625 19.20703125 C-24.81644447 14.52439504 -23.80148131 11.17937294 -21.1953125 7.3515625 C-14.64832879 0.87152137 -9.41974121 -2.78234349 0 0 Z " fill="#060505" transform="translate(229.1953125,199.6484375)"/>
<path d="M0 0 C2.61918417 1.09053305 4.63616293 2.39057902 7 4 C7.4714697 7.35125759 7.81156883 9.91576849 5.70361328 12.73193359 C3.88360929 14.47184715 2.01020632 16.09185722 0.0625 17.6875 C-1.24484713 18.78781855 -2.54592952 19.89563478 -3.83984375 21.01171875 C-4.42113037 21.49084717 -5.00241699 21.96997559 -5.60131836 22.46362305 C-7.23974283 24.26334467 -7.60402123 25.62636452 -8 28 C-11.15069422 26.63310446 -13.00891774 25.14342115 -15.1875 22.5 C-15.69667969 21.8915625 -16.20585937 21.283125 -16.73046875 20.65625 C-19.43144493 17.13251492 -19.29746258 14.387573 -19 10 C-15.30313197 1.63340392 -8.59019789 -1.07727237 0 0 Z " fill="#1D1C17" transform="translate(286,200)"/>
<path d="M0 0 C0.66 1.32 1.32 2.64 2 4 C2.66 4 3.32 4 4 4 C4 4.66 4 5.32 4 6 C3.34 6.33 2.68 6.66 2 7 C1.67 7.99 1.34 8.98 1 10 C0.01 10 -0.98 10 -2 10 C-2.99 11.98 -3.98 13.96 -5 16 C-5.66 16 -6.32 16 -7 16 C-7 16.66 -7 17.32 -7 18 C-8.32 18 -9.64 18 -11 18 C-11.33 17.34 -11.66 16.68 -12 16 C-12.99 16.33 -13.98 16.66 -15 17 C-15 16.34 -15 15.68 -15 15 C-15.556875 15.350625 -16.11375 15.70125 -16.6875 16.0625 C-19.58255019 17.236169 -20.9931093 16.66004918 -24 16 C-26.72502965 16.37722015 -26.72502965 16.37722015 -29 17 C-29.061875 16.4225 -29.12375 15.845 -29.1875 15.25 C-30.32027301 12.11309013 -32.34197595 10.90832496 -35 9 C-34.67 7.68 -34.34 6.36 -34 5 C-33.45730469 5.49371094 -32.91460937 5.98742187 -32.35546875 6.49609375 C-31.64003906 7.13675781 -30.92460937 7.77742188 -30.1875 8.4375 C-29.47980469 9.07558594 -28.77210938 9.71367187 -28.04296875 10.37109375 C-24.40951405 13.26813125 -20.87372843 13.34266432 -16.41015625 13.27734375 C-10.91496084 12.64499549 -6.66191532 10.07321788 -3.0625 5.9375 C-0.88631397 3.13617085 -0.88631397 3.13617085 0 0 Z " fill="#AFA69F" transform="translate(299,277)"/>
<path d="M0 0 C0.33 0 0.66 0 1 0 C5.12470901 21.22423084 5.14472935 43.00044435 0 64 C-1.58678567 58.34550186 -1.41770587 52.67082347 0 47 C0.66 47 1.32 47 2 47 C1.34 46.34 0.68 45.68 0 45 C-0.25851515 42.13314048 -0.39801596 39.35657601 -0.44921875 36.484375 C-0.47095657 35.63578918 -0.4926944 34.78720337 -0.51509094 33.91290283 C-0.55905505 32.11408045 -0.59824409 30.31513604 -0.63305664 28.51611328 C-0.68701475 25.77465438 -0.75729685 23.03398551 -0.83007812 20.29296875 C-0.87076806 18.54429328 -0.91051187 16.79559549 -0.94921875 15.046875 C-0.96997971 14.23103943 -0.99074066 13.41520386 -1.01213074 12.574646 C-1.08835778 8.24999248 -0.88073054 4.26135127 0 0 Z " fill="#282621" transform="translate(376,217)"/>
<path d="M0 0 C0.99 0.66 1.98 1.32 3 2 C-2.51321537 11.34003545 -9.66379904 18.89701304 -19.7890625 23.1796875 C-23.74142073 24.18941405 -27.31922344 24.22034375 -31.375 24.125 C-32.47908203 24.11146484 -32.47908203 24.11146484 -33.60546875 24.09765625 C-35.4037888 24.07430144 -37.20193911 24.03843836 -39 24 C-39 23.67 -39 23.34 -39 23 C-38.02417969 22.87882812 -37.04835938 22.75765625 -36.04296875 22.6328125 C-34.77066406 22.46523438 -33.49835938 22.29765625 -32.1875 22.125 C-30.92292969 21.96257812 -29.65835937 21.80015625 -28.35546875 21.6328125 C-24.88300683 21.20431547 -24.88300683 21.20431547 -22 19 C-20.48776116 18.53365897 -18.96586441 18.09791746 -17.4375 17.6875 C-15.04542203 16.98748517 -15.04542203 16.98748517 -13 16 C-11.70339566 13.50965614 -11.70339566 13.50965614 -11 11 C-8.4375 9.8125 -8.4375 9.8125 -6 9 C-5.67 8.34 -5.34 7.68 -5 7 C-4.34 7 -3.68 7 -3 7 C-2.690625 6.030625 -2.38125 5.06125 -2.0625 4.0625 C-1 1 -1 1 0 0 Z " fill="#ADA59F" transform="translate(313,286)"/>
<path d="M0 0 C0 3.33333333 0 6.66666667 0 10 C0.31802943 11.66965451 0.64984951 13.33678518 1 15 C-2.69942045 15 -3.40155392 14.14180873 -6.125 11.75 C-6.82882812 11.14671875 -7.53265625 10.5434375 -8.2578125 9.921875 C-10.09490433 7.89530733 -10.6100881 6.67030571 -11 4 C-9.73760288 3.13341385 -8.46472499 2.28207941 -7.1875 1.4375 C-6.47980469 0.96183594 -5.77210938 0.48617187 -5.04296875 -0.00390625 C-3 -1 -3 -1 0 0 Z " fill="#24221C" transform="translate(309,234)"/>
<path d="M0 0 C1.50348999 0.0012085 1.50348999 0.0012085 3.03735352 0.00244141 C13.86104468 0.09108183 24.37298338 1.20478096 34.8125 4.1875 C31.72440305 5.95212683 30.57937864 6.1875 26.8125 6.1875 C26.8125 5.5275 26.8125 4.8675 26.8125 4.1875 C21.91306559 3.26057998 17.0932694 2.87908597 12.125 2.625 C11.32263916 2.5832666 10.52027832 2.5415332 9.69360352 2.49853516 C-2.00671058 1.92018815 -13.50955316 2.42083526 -25.1875 3.1875 C-17.81853886 -0.94318705 -8.22661335 -0.00694757 0 0 Z M13.8125 3.1875 C13.8125 3.5175 13.8125 3.8475 13.8125 4.1875 C7.2125 4.1875 0.6125 4.1875 -6.1875 4.1875 C-6.1875 3.8575 -6.1875 3.5275 -6.1875 3.1875 C0.55061499 1.77719686 7.00272959 2.52188334 13.8125 3.1875 Z " fill="#746E6B" transform="translate(253.1875,117.8125)"/>
<path d="M0 0 C0.99 0.33 1.98 0.66 3 1 C2.814375 1.721875 2.62875 2.44375 2.4375 3.1875 C1.976918 6.14838426 2.38976567 8.10138695 3 11 C2.67 11.99 2.34 12.98 2 14 C1.64763503 15.99673484 1.31165441 17.99650739 1 20 C1.66 20 2.32 20 3 20 C3.33 23.63 3.66 27.26 4 31 C0.02251154 28.34834103 -1.01394094 25.51831174 -2 21 C-2.54967289 13.76264031 -2.60382229 6.83503351 0 0 Z " fill="#BBB1A8" transform="translate(188,203)"/>
<path d="M0 0 C3.78178214 1.60547355 6.47095562 4.00388833 9.5 6.75 C10.4384375 7.59046875 11.376875 8.4309375 12.34375 9.296875 C15.73982928 12.75288509 18.81956659 15.92501575 19.25 20.875 C19.1675 21.57625 19.085 22.2775 19 23 C14.125 18.375 14.125 18.375 13 15 C11.35448038 14.28272222 9.68577711 13.61674772 8 13 C5.77810176 10.77810176 5.07401108 8.91517292 4 6 C3.34 6 2.68 6 2 6 C2 5.01 2 4.02 2 3 C1.01 2.67 0.02 2.34 -1 2 C-0.67 1.34 -0.34 0.68 0 0 Z " fill="#ECE8DB" transform="translate(297,241)"/>
<path d="M0 0 C3.30708075 1.54536484 6.24726899 3.42794001 9.25 5.5 C10.14203125 6.1084375 11.0340625 6.716875 11.953125 7.34375 C12.62859375 7.8903125 13.3040625 8.436875 14 9 C14 9.66 14 10.32 14 11 C14.5775 11.2475 15.155 11.495 15.75 11.75 C18.32939979 13.18299988 20.06121592 14.78424676 22 17 C22 17.66 22 18.32 22 19 C22.66 19 23.32 19 24 19 C24 19.66 24 20.32 24 21 C22.68 20.67 21.36 20.34 20 20 C20.33 19.34 20.66 18.68 21 18 C19.9275 17.855625 18.855 17.71125 17.75 17.5625 C15.08337051 17.16250558 12.58600271 16.72408076 10 16 C10.66 14.02 11.32 12.04 12 10 C10.35 9.67 8.7 9.34 7 9 C7 8.34 7 7.68 7 7 C3.535 5.02 3.535 5.02 0 3 C0 2.01 0 1.02 0 0 Z " fill="#524D4A" transform="translate(326,141)"/>
<path d="M0 0 C1.65 0 3.3 0 5 0 C5 0.66 5 1.32 5 2 C5.99 1.67 6.98 1.34 8 1 C10.6875 2.3125 10.6875 2.3125 13 4 C13 4.66 13 5.32 13 6 C13.556875 6.12375 14.11375 6.2475 14.6875 6.375 C17.28715346 7.07760904 19.598062 7.76657238 22 9 C22.8125 11.125 22.8125 11.125 23 13 C21.68 13 20.36 13 19 13 C19 12.34 19 11.68 19 11 C17.7625 10.9071875 17.7625 10.9071875 16.5 10.8125 C12.56969837 9.90010855 10.10506714 8.33745306 6.83203125 6.05859375 C4.91972345 4.74984582 4.91972345 4.74984582 2 5 C2 4.01 2 3.02 2 2 C1.34 2 0.68 2 0 2 C0 1.34 0 0.68 0 0 Z " fill="#EADECE" transform="translate(273,242)"/>
<path d="M0 0 C2.6875 0.3125 2.6875 0.3125 5 1 C2.7108921 2.85990017 0.41818497 4.6977475 -1.97265625 6.42578125 C-5.93306364 9.2905993 -9.14569131 11.95639602 -12 16 C-12.33 15.01 -12.66 14.02 -13 13 C-14.31647119 12.30062468 -15.65022151 11.63270867 -17 11 C-17.33 10.34 -17.66 9.68 -18 9 C-17.34 9 -16.68 9 -16 9 C-15.67 8.34 -15.34 7.68 -15 7 C-14.67 7.99 -14.34 8.98 -14 10 C-13.01 10.33 -12.02 10.66 -11 11 C-10.87625 10.21625 -10.7525 9.4325 -10.625 8.625 C-10 6 -10 6 -8 4 C-6.7934375 3.7834375 -6.7934375 3.7834375 -5.5625 3.5625 C-2.93657153 3.24226812 -2.93657153 3.24226812 -1.5 1.375 C-1.005 0.92125 -0.51 0.4675 0 0 Z " fill="#22201D" transform="translate(265,180)"/>
<path d="M0 0 C-0.33 1.98 -0.66 3.96 -1 6 C-1.99 5.67 -2.98 5.34 -4 5 C-4.309375 6.0828125 -4.309375 6.0828125 -4.625 7.1875 C-7.41354752 12.8913472 -12.72651281 15.58648196 -18.16796875 18.3984375 C-20 19 -20 19 -23 18 C-21.04029051 15.60479951 -19.91890234 14.9756707 -16.875 14.0625 C-15.92625 13.711875 -14.9775 13.36125 -14 13 C-13.03122943 10.96756452 -13.03122943 10.96756452 -13 9 C-12.21625 8.9175 -11.4325 8.835 -10.625 8.75 C-7.89341749 8.29633683 -7.89341749 8.29633683 -6.9375 6.1875 C-6.628125 5.465625 -6.31875 4.74375 -6 4 C-2.44444444 0 -2.44444444 0 0 0 Z " fill="#A8A09B" transform="translate(254,289)"/>
<path d="M0 0 C0.33 0.66 0.66 1.32 1 2 C1.99 1.67 2.98 1.34 4 1 C3.67 2.32 3.34 3.64 3 5 C2.443125 5.04125 1.88625 5.0825 1.3125 5.125 C-2.12887848 6.42714321 -3.80128012 9.19013434 -6 12 C-8.55667234 14.86657202 -10.14268039 16.44895434 -14 17 C-12.59445027 12.76815568 -10.57219402 10.07917939 -7.5625 6.8125 C-6.78003906 5.95269531 -5.99757812 5.09289062 -5.19140625 4.20703125 C-3 2 -3 2 0 0 Z " fill="#C1B7AC" transform="translate(203,186)"/>
<path d="M0 0 C9.79534199 -1.25940111 16.87102193 1.7375563 25 7 C26.90625 9.234375 26.90625 9.234375 28 11 C19.30527627 9.50947593 19.30527627 9.50947593 16.7265625 6.52734375 C14.33549115 4.41216525 12.10061654 4.10246066 9 3.4375 C5.32917537 2.64125495 3.1564284 2.1042856 0 0 Z " fill="#EDE3D8" transform="translate(221,181)"/>
<path d="M0 0 C6.54369619 1.84041455 12.37611796 7.3503454 16 13 C16 13.99 16 14.98 16 16 C13.03 15.505 13.03 15.505 10 15 C10.020625 14.21625 10.04125 13.4325 10.0625 12.625 C10.18684063 10.01885039 10.18684063 10.01885039 9 8 C6.97536745 7.34786708 6.97536745 7.34786708 5 7 C5.33 6.34 5.66 5.68 6 5 C4.02 5.66 2.04 6.32 0 7 C-0.93423645 3.98968256 -1.04449911 3.13349732 0 0 Z " fill="#EEEAD6" transform="translate(297,184)"/>
<path d="M0 0 C0.53109375 0.40992188 1.0621875 0.81984375 1.609375 1.2421875 C2.31578125 1.78101563 3.0221875 2.31984375 3.75 2.875 C4.44609375 3.40867187 5.1421875 3.94234375 5.859375 4.4921875 C10.05400078 7.44679617 13.09194237 8.28860494 18.25 8.625 C19.32765625 8.69976562 20.4053125 8.77453125 21.515625 8.8515625 C22.33546875 8.90054687 23.1553125 8.94953125 24 9 C23.01 9.99 22.02 10.98 21 12 C20.67 11.34 20.34 10.68 20 10 C19.443125 10.350625 18.88625 10.70125 18.3125 11.0625 C15.41744981 12.236169 14.0068907 11.66004918 11 11 C8.27497035 11.37722015 8.27497035 11.37722015 6 12 C5.938125 11.4225 5.87625 10.845 5.8125 10.25 C5.13029438 7.73574836 5.13029438 7.73574836 2.4375 6 C1.633125 5.34 0.82875 4.68 0 4 C0 2.68 0 1.36 0 0 Z " fill="#BAB2AC" transform="translate(264,282)"/>
<path d="M0 0 C1.67542976 0.28604898 3.34385343 0.61781233 5 1 C4.34 2.32 3.68 3.64 3 5 C5.97 7.97 8.94 10.94 12 14 C11.01 14.99 10.02 15.98 9 17 C6.7522025 14.94766315 5.9977758 13.99332739 5 11 C4.01 10.67 3.02 10.34 2 10 C2 9.34 2 8.68 2 8 C0.68 7.67 -0.64 7.34 -2 7 C-2 6.34 -2 5.68 -2 5 C-1.34 4.67 -0.68 4.34 0 4 C-0.33 3.01 -0.66 2.02 -1 1 C-0.67 0.67 -0.34 0.34 0 0 Z " fill="#BEB3AB" transform="translate(243,240)"/>
<path d="M0 0 C-2.11774143 4.23548286 -3.62968473 5.38988385 -8 7 C-8.33 7.99 -8.66 8.98 -9 10 C-10.98 10 -12.96 10 -15 10 C-15 7.8125 -15 7.8125 -14 5 C-9.74872787 1.24589334 -5.76251272 -0.72031409 0 0 Z " fill="#F3F0DC" transform="translate(274,182)"/>
<path d="M0 0 C0.66 0 1.32 0 2 0 C2 0.66 2 1.32 2 2 C4.49064888 2.68707555 6.37886292 3 9 3 C9.12375 3.7734375 9.12375 3.7734375 9.25 4.5625 C10.32140225 8.04455732 12.13523605 10.87200885 14 14 C13.34 14.66 12.68 15.32 12 16 C11.57589844 15.40832031 11.15179688 14.81664062 10.71484375 14.20703125 C6.91053808 9.08166998 3.39629259 5.41398103 -2 2 C-1.34 1.34 -0.68 0.68 0 0 Z " fill="#232019" transform="translate(301,183)"/>
<path d="M0 0 C0.33 0 0.66 0 1 0 C1.56807841 5.30206514 1.38505303 8.05463846 -1.875 12.375 C-3.51019987 14.35777859 -5.18188292 16.18188292 -7 18 C-7.99 18 -8.98 18 -10 18 C-9.9375 15.8125 -9.9375 15.8125 -9 13 C-7.375 11.765625 -7.375 11.765625 -5.4375 10.5625 C-3.51934163 9.39751337 -3.51934163 9.39751337 -2 8 C-1.58253392 4.87364791 -1.58253392 4.87364791 -2 2 C-1.34 1.34 -0.68 0.68 0 0 Z " fill="#F7F1DC" transform="translate(315,215)"/>
<path d="M0 0 C0.33 0 0.66 0 1 0 C1.33 6.6 1.66 13.2 2 20 C1.01 19.67 0.02 19.34 -1 19 C-2.38504303 15.62145573 -2.16716339 11.97864734 -2.1875 8.375 C-2.20167969 7.22773438 -2.21585938 6.08046875 -2.23046875 4.8984375 C-2 2 -2 2 0 0 Z " fill="#BFBCB7" transform="translate(187,262)"/>
<path d="M0 0 C0.33 0 0.66 0 1 0 C0.65948997 11.67127476 -0.01468385 22.65955374 -3 34 C-4.58678567 28.34550186 -4.41770587 22.67082347 -3 17 C-2.34 17 -1.68 17 -1 17 C-1.01160156 16.10796875 -1.02320313 15.2159375 -1.03515625 14.296875 C-1.04869141 12.54117187 -1.04869141 12.54117187 -1.0625 10.75 C-1.07410156 9.58984375 -1.08570313 8.4296875 -1.09765625 7.234375 C-1.01782092 4.59022872 -0.78643778 2.50173909 0 0 Z " fill="#7A7774" transform="translate(379,247)"/>
<path d="M0 0 C0.99 0.33 1.98 0.66 3 1 C2.21573816 4.92130921 0.81256426 8.4420035 -1 12 C-3.1875 12.9375 -3.1875 12.9375 -5 13 C-5.33 12.34 -5.66 11.68 -6 11 C-6.66 10.67 -7.32 10.34 -8 10 C-7.50628906 9.59007812 -7.01257813 9.18015625 -6.50390625 8.7578125 C-5.86324219 8.21898437 -5.22257813 7.68015625 -4.5625 7.125 C-3.92441406 6.59132812 -3.28632813 6.05765625 -2.62890625 5.5078125 C-0.89194996 4.0777243 -0.89194996 4.0777243 0 2 C-0.66 1.67 -1.32 1.34 -2 1 C-1.34 0.67 -0.68 0.34 0 0 Z " fill="#B7B0A8" transform="translate(200,241)"/>
<path d="M0 0 C-0.639375 0.28875 -1.27875 0.5775 -1.9375 0.875 C-4.15206079 1.82823451 -4.15206079 1.82823451 -5 4 C-8.25746227 6.13677571 -10.91326378 6.21635086 -14.75 6.125 C-15.73484375 6.10695312 -16.7196875 6.08890625 -17.734375 6.0703125 C-18.85585937 6.03550781 -18.85585937 6.03550781 -20 6 C-16.7410945 3.82739633 -13.67850305 2.64978913 -10 1.3125 C-8.7625 0.85488281 -7.525 0.39726563 -6.25 -0.07421875 C-3 -1 -3 -1 0 0 Z " fill="#504C49" transform="translate(218,124)"/>
<path d="M0 0 C0.66 0 1.32 0 2 0 C3.75163456 3.77222089 4.22490027 6.666639 4.125 10.8125 C4.10695313 11.78832031 4.08890625 12.76414063 4.0703125 13.76953125 C4.03550781 14.87361328 4.03550781 14.87361328 4 16 C3.01 16 2.02 16 1 16 C0.67 10.72 0.34 5.44 0 0 Z " fill="#242019" transform="translate(316,203)"/>
<path d="M0 0 C0.66 0 1.32 0 2 0 C2 0.66 2 1.32 2 2 C2.99 2 3.98 2 5 2 C5.33 4.31 5.66 6.62 6 9 C2.31245243 8.50168276 0.39509338 7.89932357 -2 5 C-1.34 3.35 -0.68 1.7 0 0 Z " fill="#EFE6D5" transform="translate(266,233)"/>
<path d="M0 0 C-4.29379181 3.30701978 -6.24429951 4.20483172 -11.75 3.5625 C-13.35875 3.2840625 -13.35875 3.2840625 -15 3 C-15 3.66 -15 4.32 -15 5 C-17.31 5 -19.62 5 -22 5 C-15.87916529 -0.61076515 -7.79514995 -0.28752602 0 0 Z " fill="#C6BDB3" transform="translate(228,180)"/>
<path d="M0 0 C2.625 0.375 2.625 0.375 5 1 C4.21625 1.886875 3.4325 2.77375 2.625 3.6875 C0.42843009 6.30720519 -0.93790341 8.71715601 -2 12 C-2.66 11.67 -3.32 11.34 -4 11 C-4 8.69 -4 6.38 -4 4 C-3.01 4.33 -2.02 4.66 -1 5 C-1.33 4.01 -1.66 3.02 -2 2 C-1.34 1.34 -0.68 0.68 0 0 Z " fill="#F4EEDA" transform="translate(269,200)"/>
<path d="M0 0 C1.8125 0.75 1.8125 0.75 4 2 C4.9075 2.495 5.815 2.99 6.75 3.5 C7.86375 4.2425 7.86375 4.2425 9 5 C9 5.66 9 6.32 9 7 C9.66 7 10.32 7 11 7 C11 7.66 11 8.32 11 9 C9.68 8.67 8.36 8.34 7 8 C7.33 7.34 7.66 6.68 8 6 C6.9275 5.855625 5.855 5.71125 4.75 5.5625 C2.08337051 5.16250558 -0.41399729 4.72408076 -3 4 C-2.67 3.01 -2.34 2.02 -2 1 C-1.34 0.67 -0.68 0.34 0 0 Z " fill="#3F3B38" transform="translate(339,153)"/>
<path d="M0 0 C3.11932161 1.5596608 3.69125949 4.19913594 5.125 7.3125 C5.66382813 8.46363281 6.20265625 9.61476562 6.7578125 10.80078125 C8 14 8 14 8 18 C7.01 18 6.02 18 5 18 C5.0825 17.2575 5.165 16.515 5.25 15.75 C5.30213749 12.87513095 5.30213749 12.87513095 3.0625 11.25 C0.00054564 7.90968616 0.1878293 4.39520551 0 0 Z " fill="#5A5854" transform="translate(363,181)"/>
<path d="M0 0 C4.21814817 3.9700218 7.61227103 8.30840284 11 13 C10.67 13.66 10.34 14.32 10 15 C5.125 12.375 5.125 12.375 4 9 C3.2575 8.3503125 3.2575 8.3503125 2.5 7.6875 C0.39495139 5.31932032 0.34279827 3.08518447 0 0 Z " fill="#625D5A" transform="translate(350,162)"/>
<path d="M0 0 C2.25 -0.25 2.25 -0.25 5 0 C7.1875 1.9375 7.1875 1.9375 9 4 C9.66 4.33 10.32 4.66 11 5 C11 5.66 11 6.32 11 7 C11.639375 7.12375 12.27875 7.2475 12.9375 7.375 C13.618125 7.58125 14.29875 7.7875 15 8 C15.33 8.66 15.66 9.32 16 10 C13.07835721 9.53253715 10.94122961 8.43867686 8.4375 6.9375 C5.22207782 4.75449347 5.22207782 4.75449347 2 5 C2 4.01 2 3.02 2 2 C1.34 2 0.68 2 0 2 C0 1.34 0 0.68 0 0 Z " fill="#E2DBCB" transform="translate(273,242)"/>
<path d="M0 0 C1.5 1.375 1.5 1.375 3 3 C3 3.66 3 4.32 3 5 C2.34 5 1.68 5 1 5 C0.67 6.98 0.34 8.96 0 11 C-0.99 10.34 -1.98 9.68 -3 9 C-3.99 9.99 -4.98 10.98 -6 12 C-6.66 11.67 -7.32 11.34 -8 11 C-7.38511719 10.31164062 -7.38511719 10.31164062 -6.7578125 9.609375 C-6.21898437 8.99578125 -5.68015625 8.3821875 -5.125 7.75 C-4.59132813 7.14671875 -4.05765625 6.5434375 -3.5078125 5.921875 C-2.0202513 4.02581254 -0.99677564 2.18709995 0 0 Z " fill="#322F26" transform="translate(316,221)"/>
<path d="M0 0 C3.54243452 1.36591169 6.92627929 2.90931484 10.3125 4.625 C11.63701172 5.29402344 11.63701172 5.29402344 12.98828125 5.9765625 C13.65214844 6.31429687 14.31601562 6.65203125 15 7 C14.67 7.99 14.34 8.98 14 10 C10.30123909 8.62712658 7.0485524 6.93644547 3.6875 4.875 C2.36298828 4.06675781 2.36298828 4.06675781 1.01171875 3.2421875 C0.34785156 2.83226562 -0.31601562 2.42234375 -1 2 C-0.67 1.34 -0.34 0.68 0 0 Z " fill="#C0B9B1" transform="translate(276,246)"/>
<path d="M0 0 C5.94155844 5.74350649 5.94155844 5.74350649 6.125 9.6875 C6.08375 10.450625 6.0425 11.21375 6 12 C0 6 0 6 -0.0625 2.9375 C-0.041875 1.968125 -0.02125 0.99875 0 0 Z " fill="#E2DDD4" transform="translate(310,252)"/>
<path d="M0 0 C0.33 0.66 0.66 1.32 1 2 C1.66 2.33 2.32 2.66 3 3 C1.5361389 7.39158329 -0.97831338 7.87947433 -5 10 C-5 6.60406522 -4.47834052 5.93380119 -2.5 3.3125 C-2.0359375 2.68988281 -1.571875 2.06726563 -1.09375 1.42578125 C-0.7328125 0.95527344 -0.371875 0.48476562 0 0 Z " fill="#B7AEA6" transform="translate(195,193)"/>
<path d="M0 0 C0.33 0 0.66 0 1 0 C1.25287193 6.06892629 0.69832609 11.16200408 -1 17 C-1.99 16.67 -2.98 16.34 -4 16 C-3.67 13.03 -3.34 10.06 -3 7 C-2.01 7 -1.02 7 0 7 C0 4.69 0 2.38 0 0 Z " fill="#AEA7A2" transform="translate(318,268)"/>
<path d="M0 0 C2.5501608 0.97322463 3.75047311 1.44778614 4.8984375 3.98828125 C6.48412917 11.72177753 6.48412917 11.72177753 4 16 C3.34 15.67 2.68 15.34 2 15 C2.03480469 14.12988281 2.03480469 14.12988281 2.0703125 13.2421875 C2.18250423 8.38588834 1.87514915 4.57067605 0 0 Z " fill="#B2A8A0" transform="translate(238,263)"/>
<path d="M0 0 C0.66 0.33 1.32 0.66 2 1 C0.54540569 2.64913882 -0.91379257 4.29421782 -2.375 5.9375 C-3.18710937 6.85402344 -3.99921875 7.77054688 -4.8359375 8.71484375 C-7 11 -7 11 -9 12 C-7.72210402 6.03648545 -4.66283606 3.51582826 0 0 Z " fill="#E3E0D2" transform="translate(288,215)"/>
<path d="M0 0 C1.98362069 2.91708924 1.9876191 4.12380904 1.625 7.75 C1.41875 8.8225 1.2125 9.895 1 11 C1.66 11.33 2.32 11.66 3 12 C1.35 13.32 -0.3 14.64 -2 16 C-1.42978066 10.6496441 -0.79265639 5.32212148 0 0 Z " fill="#F0E4DA" transform="translate(241,212)"/>
<path d="M0 0 C2.24940295 -0.08119503 4.49964871 -0.13927819 6.75 -0.1875 C8.00296875 -0.22230469 9.2559375 -0.25710937 10.546875 -0.29296875 C14.14109357 0.01197061 15.44725126 0.54394629 18 3 C14.13519235 4.48646448 11.80199047 3.29267676 8 2 C6.9275 2 5.855 2 4.75 2 C3.8425 2 2.935 2 2 2 C1.34 1.34 0.68 0.68 0 0 Z " fill="#EFEBDA" transform="translate(276,180)"/>
<path d="M0 0 C6.2054142 0.48320848 11.99945246 1.33318124 18 3 C14.91190305 4.76462683 13.76687864 5 10 5 C10 4.34 10 3.68 10 3 C6.7 2.34 3.4 1.68 0 1 C0 0.67 0 0.34 0 0 Z " fill="#86837C" transform="translate(270,119)"/>
<path d="M0 0 C-2.81197457 2.81197457 -5.84011245 2.69902557 -9.625 3.125 C-10.33140625 3.21136719 -11.0378125 3.29773438 -11.765625 3.38671875 C-13.50950141 3.59881183 -15.2546484 3.80040991 -17 4 C-17.33 3.34 -17.66 2.68 -18 2 C-11.92972642 -0.1583195 -6.40629424 -0.20852314 0 0 Z " fill="#1A1512" transform="translate(256,119)"/>
<path d="M0 0 C0.66 0.33 1.32 0.66 2 1 C2 1.66 2 2.32 2 3 C2.66 3 3.32 3 4 3 C4.33 2.01 4.66 1.02 5 0 C5 0.66 5 1.32 5 2 C5.99 2.33 6.98 2.66 8 3 C7.34 3 6.68 3 6 3 C6.33 4.32 6.66 5.64 7 7 C6.01 7.495 6.01 7.495 5 8 C0.125 4.375 0.125 4.375 -1 1 C-0.67 0.67 -0.34 0.34 0 0 Z " fill="#AAA39E" transform="translate(256,296)"/>
<path d="M0 0 C1.875 0.1875 1.875 0.1875 4 1 C4.71727778 2.64551962 5.38325228 4.31422289 6 6 C6.99 6.66 7.98 7.32 9 8 C9 8.66 9 9.32 9 10 C6.51339545 9.6121322 5.27654781 9.29037521 3.515625 7.44140625 C3.09796875 6.82136719 2.6803125 6.20132812 2.25 5.5625 C1.82203125 4.94503906 1.3940625 4.32757813 0.953125 3.69140625 C0 2 0 2 0 0 Z " fill="#D3CFCC" transform="translate(190,288)"/>
<path d="M0 0 C0 0.33 0 0.66 0 1 C-2.43711614 1.19484938 -4.87437398 1.38115178 -7.3125 1.5625 C-8.00279297 1.61857422 -8.69308594 1.67464844 -9.40429688 1.73242188 C-12.62512274 1.96581505 -14.90327345 2.03224218 -18 1 C-17.67 0.34 -17.34 -0.32 -17 -1 C-10.98786259 -2.53501381 -5.9540057 -1.44956678 0 0 Z " fill="#3C3B34" transform="translate(287,179)"/>
<path d="M0 0 C-3.222107 3.8665284 -6.14922412 4.88059018 -11 6 C-11 5.01 -11 4.02 -11 3 C-7.14243493 0.84694043 -4.44870215 -0.39253254 0 0 Z " fill="#B2ACA7" transform="translate(243,302)"/>
<path d="M0 0 C1.27310312 0.93441535 2.543388 1.87267111 3.8125 2.8125 C4.52019531 3.33457031 5.22789062 3.85664063 5.95703125 4.39453125 C7.78531393 5.83128877 9.39896688 7.31815763 11 9 C6.18018197 8.55164483 3.40366576 7.50377357 0 4 C0 2.68 0 1.36 0 0 Z " fill="#BFBBB6" transform="translate(264,282)"/>
<path d="M0 0 C0.66 0.99 1.32 1.98 2 3 C0.76302083 4.46484375 -0.47395833 5.9296875 -1.7109375 7.39453125 C-2.89201099 8.8655046 -3.95358529 10.43037794 -5 12 C-5.3125 8.8125 -5.3125 8.8125 -5 5 C-2.5 2.0625 -2.5 2.0625 0 0 Z " fill="#B8ACA5" transform="translate(210,201)"/>
<path d="M0 0 C0.66 0 1.32 0 2 0 C2.33 1.98 2.66 3.96 3 6 C2.67 6 2.34 6 2 6 C1.67 7.65 1.34 9.3 1 11 C-1.79908133 8.20091867 -1.72362983 5.86918237 -2 2 C-1.34 1.34 -0.68 0.68 0 0 Z " fill="#B1AAA1" transform="translate(258,263)"/>
<path d="M0 0 C0.33 0 0.66 0 1 0 C1.41176754 3.60296594 1.1535853 4.78402067 -1 7.8125 C-1.66 8.534375 -2.32 9.25625 -3 10 C-4.32 9.67 -5.64 9.34 -7 9 C-6.57847656 8.51789063 -6.15695313 8.03578125 -5.72265625 7.5390625 C-5.17480469 6.90742188 -4.62695312 6.27578125 -4.0625 5.625 C-3.51722656 4.99851563 -2.97195312 4.37203125 -2.41015625 3.7265625 C-0.93041376 2.04367666 -0.93041376 2.04367666 0 0 Z " fill="#D9CFC5" transform="translate(238,224)"/>
<path d="M0 0 C2.475 0.99 2.475 0.99 5 2 C5 2.66 5 3.32 5 4 C5.66 4.33 6.32 4.66 7 5 C7 5.66 7 6.32 7 7 C7.33 7.33 7.66 7.66 8 8 C8.04063832 9.66617115 8.042721 11.33388095 8 13 C6.64737514 10.97106271 5.3144712 8.92886125 4 6.875 C2.30925867 3.95510761 2.30925867 3.95510761 0 3 C0 2.01 0 1.02 0 0 Z " fill="#DED3C9" transform="translate(233,200)"/>
<path d="M0 0 C0.99 0.66 1.98 1.32 3 2 C3 2.66 3 3.32 3 4 C1.35 4.33 -0.3 4.66 -2 5 C-1.34 3.35 -0.68 1.7 0 0 Z M-9 4 C-7.02 4 -5.04 4 -3 4 C-3 4.99 -3 5.98 -3 7 C-4.98 6.34 -6.96 5.68 -9 5 C-9 4.67 -9 4.34 -9 4 Z " fill="#2D2B29" transform="translate(301,177)"/>
<path d="M0 0 C1.32 0.33 2.64 0.66 4 1 C2.77065985 4.68802044 1.06140622 5.72356973 -2 8 C-2.6875 6.25 -2.6875 6.25 -3 4 C-1.5625 1.75 -1.5625 1.75 0 0 Z " fill="#F3EEDB" transform="translate(299,232)"/>
<path d="M0 0 C0.99 0.66 1.98 1.32 3 2 C1.7260411 4.03833424 0.38938077 6.03852126 -1 8 C-1.66 8 -2.32 8 -3 8 C-2.45276317 4.62537285 -1.9451 2.91765 0 0 Z " fill="#B6ADA5" transform="translate(313,286)"/>
<path d="M0 0 C0.33 1.32 0.66 2.64 1 4 C0.01 4.66 -0.98 5.32 -2 6 C-2.33 6.99 -2.66 7.98 -3 9 C-3.66 9 -4.32 9 -5 9 C-4.67 7.68 -4.34 6.36 -4 5 C-4.66 4.67 -5.32 4.34 -6 4 C-4.02 2.68 -2.04 1.36 0 0 Z " fill="#AEA8A1" transform="translate(234,285)"/>
<path d="M0 0 C3 1 3 1 4.75 3.4375 C5.36875 4.7059375 5.36875 4.7059375 6 6 C5.67 6.66 5.34 7.32 5 8 C3.0625 7.375 3.0625 7.375 1 6 C0.25 2.875 0.25 2.875 0 0 Z " fill="#D3D1CD" transform="translate(205,280)"/>
<path d="M0 0 C3.16115776 1.36983503 3.9927092 1.9890638 6 5 C5.01 5.66 4.02 6.32 3 7 C1.5 5.75 1.5 5.75 0 4 C0 2.68 0 1.36 0 0 Z " fill="#C1B9B3" transform="translate(249,250)"/>
<path d="M0 0 C0.66 0 1.32 0 2 0 C2.33 3.63 2.66 7.26 3 11 C0 9 0 9 -0.75 6.625 C-0.99286095 4.07496 -0.8028831 2.40864929 0 0 Z " fill="#B4AAA2" transform="translate(189,223)"/>
<path d="M0 0 C0.95465783 2.16967689 1.14401212 3.56328793 0.3984375 5.82421875 C-0.35870385 7.5684743 -1.17609198 9.28627131 -2 11 C-2.33 11 -2.66 11 -3 11 C-3.36923077 3.49230769 -3.36923077 3.49230769 -1.5 1 C-1.005 0.67 -0.51 0.34 0 0 Z " fill="#252118" transform="translate(271,204)"/>
<path d="M0 0 C0.99 0.33 1.98 0.66 3 1 C3.1875 3.375 3.1875 3.375 3 6 C2.01 6.66 1.02 7.32 0 8 C-0.98120464 4.94736336 -0.98120464 3.05263664 0 0 Z " fill="#12100B" transform="translate(290,205)"/>
<path d="M0 0 C0 0.66 0 1.32 0 2 C0.66 2.33 1.32 2.66 2 3 C-2.34464536 2.39174965 -6.67551867 1.73832608 -11 1 C-11 0.67 -11 0.34 -11 0 C-7.01803543 -1.05404945 -4.01804691 -0.84098656 0 0 Z " fill="#DCD1C7" transform="translate(230,197)"/>
<path d="M0 0 C2.9375 1.4375 2.9375 1.4375 4.9375 6.4375 C1.3075 4.7875 -2.3225 3.1375 -6.0625 1.4375 C-3.0625 -0.5625 -3.0625 -0.5625 0 0 Z " fill="#37312C" transform="translate(238.0625,180.5625)"/>
<path d="M0 0 C2.834242 1.417121 5.37494563 3.23094162 8 5 C7.01 5.495 7.01 5.495 6 6 C-0.4 3.6 -0.4 3.6 -3 1 C-2.01 0.67 -1.02 0.34 0 0 Z " fill="#C2BFBC" transform="translate(206,302)"/>
<path d="M0 0 C-0.33 1.98 -0.66 3.96 -1 6 C-1.99 5.67 -2.98 5.34 -4 5 C-4.33 5.66 -4.66 6.32 -5 7 C-5.33 6.01 -5.66 5.02 -6 4 C-2.25 0 -2.25 0 0 0 Z " fill="#A1968D" transform="translate(254,289)"/>
<path d="M0 0 C0.66 0.99 1.32 1.98 2 3 C1.649375 3.61875 1.29875 4.2375 0.9375 4.875 C0.4734375 5.926875 0.4734375 5.926875 0 7 C0.33 7.66 0.66 8.32 1 9 C0.01 9.33 -0.98 9.66 -2 10 C-2.66 8.68 -3.32 7.36 -4 6 C-3.525625 5.566875 -3.05125 5.13375 -2.5625 4.6875 C-0.76313043 2.97690387 -0.76313043 2.97690387 0 0 Z " fill="#ADA49D" transform="translate(239,278)"/>
<path d="M0 0 C1.65 0.33 3.3 0.66 5 1 C5 1.66 5 2.32 5 3 C4.030625 3.28875 3.06125 3.5775 2.0625 3.875 C-1.10664203 4.64214682 -1.10664203 4.64214682 -2 7 C-2.66 6.34 -3.32 5.68 -4 5 C-3.34 4.360625 -2.68 3.72125 -2 3.0625 C0.11602431 1.35917681 0.11602431 1.35917681 0 0 Z " fill="#C0B8B1" transform="translate(213,251)"/>
<path d="M0 0 C0.66 0.99 1.32 1.98 2 3 C2.99 3.33 3.98 3.66 5 4 C5 5.65 5 7.3 5 9 C4.34 8.67 3.68 8.34 3 8 C3 7.34 3 6.68 3 6 C2.0409375 5.566875 2.0409375 5.566875 1.0625 5.125 C-1 4 -1 4 -2 2 C-1.34 2 -0.68 2 0 2 C0 1.34 0 0.68 0 0 Z " fill="#2D2B24" transform="translate(249,187)"/>
<path d="M0 0 C0.66 1.32 1.32 2.64 2 4 C0 6 -2 8 -4 10 C-3.5205537 5.78087253 -2.83374881 3.20336822 0 0 Z " fill="#221F1D" transform="translate(209,259)"/>
<path d="M0 0 C2.97 0.495 2.97 0.495 6 1 C6 2.32 6 3.64 6 5 C3.5625 4.1875 3.5625 4.1875 1 3 C0.67 2.01 0.34 1.02 0 0 Z " fill="#F9F1E4" transform="translate(304,251)"/>
<path d="M0 0 C2.475 0.495 2.475 0.495 5 1 C5 1.66 5 2.32 5 3 C5.639375 3.12375 6.27875 3.2475 6.9375 3.375 C7.618125 3.58125 8.29875 3.7875 9 4 C9.33 4.66 9.66 5.32 10 6 C6.00452264 5.38531118 3.22493358 3.34540624 0 1 C0 0.67 0 0.34 0 0 Z " fill="#DCD1C4" transform="translate(279,246)"/>
<path d="M0 0 C1.32 1.32 2.64 2.64 4 4 C3.34 5.65 2.68 7.3 2 9 C0.79371992 6.66785852 -0.1654738 4.50357861 -1 2 C-0.67 1.34 -0.34 0.68 0 0 Z " fill="#B9ACA4" transform="translate(208,227)"/>
<path d="M0 0 C2.84875378 0.20153707 5.25099253 1.14375177 8 2 C8 2.33 8 2.66 8 3 C4.37 3 0.74 3 -3 3 C-2.01 2.01 -1.02 1.02 0 0 Z " fill="#090603" transform="translate(221,177)"/>
<path d="M0 0 C0 0.66 0 1.32 0 2 C-0.99 2.33 -1.98 2.66 -3 3 C-3 4.32 -3 5.64 -3 7 C-5.475 6.01 -5.475 6.01 -8 5 C-3.16129032 0 -3.16129032 0 0 0 Z " fill="#66615E" transform="translate(190,134)"/>
<path d="M0 0 C3.66881155 0.70554068 6.70450534 2.27735506 10 4 C9.34 4.66 8.68 5.32 8 6 C5 6 5 6 3.61328125 4.6875 C2.40885417 3.125 1.20442708 1.5625 0 0 Z " fill="#6D6B67" transform="translate(309,131)"/>
<path d="M0 0 C0.66 0.99 1.32 1.98 2 3 C1.125 6.6875 1.125 6.6875 0 10 C-0.66 9.67 -1.32 9.34 -2 9 C-1.34 6.03 -0.68 3.06 0 0 Z " fill="#B4ADA6" transform="translate(262,278)"/>
<path d="M0 0 C2 1 2 1 3.125 3.3125 C4 6 4 6 4 10 C3.01 10 2.02 10 1 10 C0.67 6.7 0.34 3.4 0 0 Z " fill="#7C756F" transform="translate(367,189)"/>
<path d="M0 0 C0 0.66 0 1.32 0 2 C0.99 2.33 1.98 2.66 3 3 C3 3.99 3 4.98 3 6 C0.11562221 4.70700306 -1.87219421 3.34058637 -4 1 C-2 0 -2 0 0 0 Z " fill="#2D2B23" transform="translate(303,183)"/>
<path d="M0 0 C3.82097239 0.53069061 6.06171403 1.49701566 9 4 C7.1875 4.625 7.1875 4.625 5 5 C2 3 2 3 0 0 Z " fill="#625A57" transform="translate(300,127)"/>
<path d="M0 0 C3.16115776 1.36983503 3.9927092 1.9890638 6 5 C4.68 5.33 3.36 5.66 2 6 C2 5.01 2 4.02 2 3 C1.01 2.67 0.02 2.34 -1 2 C-0.67 1.34 -0.34 0.68 0 0 Z " fill="#E1DED0" transform="translate(297,241)"/>
<path d="M0 0 C1.67542976 0.28604898 3.34385343 0.61781233 5 1 C4.34 2.65 3.68 4.3 3 6 C2.34 6 1.68 6 1 6 C0.34 4.35 -0.32 2.7 -1 1 C-0.67 0.67 -0.34 0.34 0 0 Z " fill="#B2A79E" transform="translate(243,240)"/>
<path d="M0 0 C-0.66 1.32 -1.32 2.64 -2 4 C-3.32 3.67 -4.64 3.34 -6 3 C-5.67 2.67 -5.34 2.34 -5 2 C-5.66 1.34 -6.32 0.68 -7 0 C-4.3333581 -1.33332095 -2.83319697 -0.67102033 0 0 Z " fill="#C5B9AC" transform="translate(235,234)"/>
<path d="M0 0 C0.99 0.33 1.98 0.66 3 1 C2.67 2.65 2.34 4.3 2 6 C1.01 6.33 0.02 6.66 -1 7 C-0.67 4.69 -0.34 2.38 0 0 Z " fill="#B2A8A0" transform="translate(188,203)"/>
<path d="M0 0 C0.66 1.32 1.32 2.64 2 4 C0.625 5.5 0.625 5.5 -1 7 C-1.66 7 -2.32 7 -3 7 C-1.125 1.125 -1.125 1.125 0 0 Z " fill="#63605F" transform="translate(143,178)"/>
<path d="M0 0 C1.5625 1.8125 1.5625 1.8125 3 4 C2.67 4.99 2.34 5.98 2 7 C1.34 7 0.68 7 0 7 C-1.125 2.25 -1.125 2.25 0 0 Z " fill="#BFBBB2" transform="translate(256,257)"/>
<path d="M0 0 C1.98 0.66 3.96 1.32 6 2 C5.67 2.99 5.34 3.98 5 5 C2.525 4.01 2.525 4.01 0 3 C0 2.01 0 1.02 0 0 Z " fill="#BCB2A9" transform="translate(285,251)"/>
<path d="M0 0 C0.33 0 0.66 0 1 0 C1.33 4.29 1.66 8.58 2 13 C1.67 13 1.34 13 1 13 C1 11.35 1 9.7 1 8 C0.34 8 -0.32 8 -1 8 C-0.67 5.36 -0.34 2.72 0 0 Z " fill="#6E6C62" transform="translate(376,217)"/>
</svg>
